<svg xmlns="http://www.w3.org/2000/svg" xmlns:xlink="http://www.w3.org/1999/xlink" width="500" zoomAndPan="magnify" viewBox="0 0 375 374.999991" height="500" preserveAspectRatio="xMidYMid meet" version="1.0"><defs><g/><clipPath id="54816b2f47"><path d="M 68 28.191406 L 88 28.191406 L 88 51 L 68 51 Z M 68 28.191406 " clip-rule="nonzero"/></clipPath><clipPath id="0c46b7cb60"><path d="M 142 36 L 307 36 L 307 226.191406 L 142 226.191406 Z M 142 36 " clip-rule="nonzero"/></clipPath></defs><rect x="-37.5" width="450" fill="#ffffff" y="-37.499999" height="449.999989" fill-opacity="1"/><rect x="-37.5" width="450" fill="#ffffff" y="-37.499999" height="449.999989" fill-opacity="1"/><rect x="-37.5" width="450" fill="#000000" y="-37.499999" height="449.999989" fill-opacity="1"/><g fill="#ffffff" fill-opacity="1"><g transform="translate(51.370547, 286.468269)"><g><path d="M 19.175781 -20.703125 L 19.175781 -26.914062 L 1.90625 -26.914062 L 1.90625 0 L 8.386719 0 L 8.386719 -9.644531 L 18.566406 -9.644531 L 18.566406 -15.707031 L 8.386719 -15.707031 L 8.386719 -20.703125 Z M 19.175781 -20.703125 "/></g></g></g><g fill="#ffffff" fill-opacity="1"><g transform="translate(76.03741, 286.468269)"><g><path d="M 17.003906 0 L 17.003906 -5.832031 L 12.582031 -5.832031 L 12.582031 -20.890625 L 17.003906 -20.890625 L 17.003906 -26.839844 L 1.640625 -26.839844 L 1.640625 -20.890625 L 6.0625 -20.890625 L 6.0625 -5.832031 L 1.640625 -5.832031 L 1.640625 0 Z M 17.003906 0 "/></g></g></g><g fill="#ffffff" fill-opacity="1"><g transform="translate(98.302506, 286.468269)"><g><path d="M 1.90625 -26.6875 L 1.90625 0 L 19.632812 0 L 19.632812 -6.289062 L 8.425781 -6.289062 L 8.425781 -26.6875 Z M 1.90625 -26.6875 "/></g></g></g><g fill="#ffffff" fill-opacity="1"><g transform="translate(123.121871, 286.468269)"><g><path d="M 14.105469 -16.355469 L 7.089844 -26.6875 L 1.90625 -26.6875 L 1.90625 0 L 8.425781 0 L 8.425781 -13.265625 L 12.277344 -7.511719 L 15.898438 -7.511719 L 19.75 -13.191406 L 19.75 0 L 26.230469 0 L 26.230469 -26.6875 L 21.121094 -26.6875 Z M 14.105469 -16.355469 "/></g></g></g><g fill="#ffffff" fill-opacity="1"><g transform="translate(155.222786, 286.468269)"><g/></g></g><g fill="#ffffff" fill-opacity="1"><g transform="translate(168.605179, 286.468269)"><g><path d="M 27.449219 0.152344 L 36.101562 -25.886719 L 36.101562 -26.6875 L 29.585938 -26.6875 L 24.476562 -11.246094 L 21.160156 -20.585938 L 15.628906 -20.585938 L 12.277344 -11.246094 L 7.167969 -26.6875 L 0.648438 -26.6875 L 0.648438 -25.886719 L 9.300781 0.152344 L 15.058594 0.152344 L 18.335938 -9.113281 L 21.691406 0.152344 Z M 27.449219 0.152344 "/></g></g></g><g fill="#ffffff" fill-opacity="1"><g transform="translate(209.62693, 286.468269)"><g><path d="M 1.945312 -13.304688 C 1.945312 -5.453125 8.121094 0.382812 15.746094 0.382812 C 23.371094 0.382812 29.585938 -5.566406 29.585938 -13.304688 C 29.585938 -21.160156 23.371094 -27.105469 15.746094 -27.105469 C 8.121094 -27.105469 1.945312 -21.160156 1.945312 -13.304688 Z M 8.425781 -13.304688 C 8.425781 -18.375 12.085938 -20.855469 15.746094 -20.855469 C 19.40625 -20.855469 23.027344 -18.335938 23.027344 -13.304688 C 23.027344 -8.3125 19.328125 -5.792969 15.667969 -5.792969 C 12.007812 -5.792969 8.425781 -8.273438 8.425781 -13.304688 Z M 8.425781 -13.304688 "/></g></g></g><g fill="#ffffff" fill-opacity="1"><g transform="translate(244.968324, 286.468269)"><g><path d="M 12.277344 -26.914062 L 1.90625 -26.914062 L 1.90625 0 L 8.386719 0 L 8.386719 -9.035156 L 9.453125 -9.035156 L 15.019531 0 L 21.960938 0 L 21.960938 -1.21875 L 16.242188 -9.683594 C 19.75 -11.359375 21.464844 -14.792969 21.464844 -18.03125 C 21.464844 -22.453125 18.375 -26.914062 12.277344 -26.914062 Z M 12.125 -14.945312 L 8.386719 -14.945312 L 8.386719 -20.664062 L 12.125 -20.664062 C 14.105469 -20.664062 15.097656 -19.175781 15.097656 -17.765625 C 15.097656 -16.394531 14.066406 -14.945312 12.125 -14.945312 Z M 12.125 -14.945312 "/></g></g></g><g fill="#ffffff" fill-opacity="1"><g transform="translate(271.960713, 286.468269)"><g><path d="M 1.90625 -26.6875 L 1.90625 0 L 19.632812 0 L 19.632812 -6.289062 L 8.425781 -6.289062 L 8.425781 -26.6875 Z M 1.90625 -26.6875 "/></g></g></g><g fill="#ffffff" fill-opacity="1"><g transform="translate(296.780083, 286.468269)"><g><path d="M 12.464844 -26.6875 L 1.867188 -26.6875 L 1.867188 0 L 12.464844 0 C 21.273438 0 25.695312 -6.632812 25.695312 -13.304688 C 25.695312 -19.976562 21.273438 -26.6875 12.464844 -26.6875 Z M 12.464844 -6.214844 L 8.347656 -6.214844 L 8.347656 -20.511719 L 12.464844 -20.511719 C 16.964844 -20.511719 19.253906 -16.8125 19.253906 -13.304688 C 19.253906 -9.796875 16.964844 -6.214844 12.464844 -6.214844 Z M 12.464844 -6.214844 "/></g></g></g><g fill="#ffffff" fill-opacity="1"><g transform="translate(75.555348, 314.607112)"><g><path d="M 10.902344 -14.652344 L 10.902344 -14.675781 L 0.609375 -14.675781 C 0.609375 -14.675781 1.636719 -14.003906 1.636719 -12.601562 L 1.636719 -1.867188 C 1.636719 -0.609375 0.609375 0 0.609375 0 L 5.03125 0 C 5.03125 0 4.003906 -0.609375 4.003906 -1.867188 L 4.003906 -5.660156 L 10.902344 -5.660156 C 13.25 -5.660156 15.15625 -7.335938 15.15625 -10.417969 C 15.15625 -12.765625 13.25 -14.652344 10.902344 -14.652344 Z M 9.582031 -7.945312 L 4.003906 -7.945312 L 4.003906 -10.902344 C 4.003906 -11.699219 4.675781 -12.367188 5.492188 -12.367188 L 9.8125 -12.367188 C 11.71875 -12.367188 13.125 -11.238281 12.726562 -9.664062 C 12.472656 -8.636719 11.027344 -7.945312 9.582031 -7.945312 Z M 9.582031 -7.945312 "/></g></g></g><g fill="#ffffff" fill-opacity="1"><g transform="translate(97.441218, 314.607112)"><g><path d="M 13.5 -2.808594 L 11.277344 -5.679688 C 13.460938 -5.828125 15.15625 -7.484375 15.15625 -10.417969 C 15.15625 -12.765625 13.25 -14.675781 10.921875 -14.675781 L 0.609375 -14.675781 C 0.609375 -14.675781 1.636719 -14.003906 1.636719 -12.601562 L 1.636719 -1.867188 C 1.636719 -0.585938 0.609375 0 0.609375 0 L 5.03125 0 C 5.03125 0 4.003906 -0.585938 4.003906 -1.867188 L 4.003906 -5.660156 L 8.617188 -5.660156 L 11.300781 -2.179688 C 12.367188 -0.796875 15.15625 0 16.898438 0 L 16.898438 -1.175781 C 15.554688 -1.175781 14.320312 -1.761719 13.5 -2.808594 Z M 4.003906 -7.945312 L 4.003906 -10.902344 C 4.003906 -11.699219 4.675781 -12.367188 5.492188 -12.367188 L 9.789062 -12.367188 C 11.699219 -12.367188 13.125 -11.238281 12.726562 -9.664062 C 12.472656 -8.636719 11.027344 -7.945312 9.582031 -7.945312 Z M 4.003906 -7.945312 "/></g></g></g><g fill="#ffffff" fill-opacity="1"><g transform="translate(120.773261, 314.607112)"><g><path d="M 8.785156 -12.601562 C 12.265625 -12.601562 14.550781 -10.316406 14.550781 -7.316406 C 14.550781 -4.359375 12.265625 -2.054688 8.785156 -2.054688 C 5.304688 -2.054688 3.019531 -4.589844 3.019531 -7.316406 C 3.019531 -10.230469 5.304688 -12.601562 8.785156 -12.601562 Z M 0.671875 -7.316406 C 0.671875 -2.640625 4.613281 0.230469 8.785156 0.230469 C 12.957031 0.230469 16.898438 -2.746094 16.898438 -7.316406 C 16.898438 -11.886719 12.957031 -14.886719 8.785156 -14.886719 C 4.613281 -14.886719 0.671875 -12.011719 0.671875 -7.316406 Z M 0.671875 -7.316406 "/></g></g></g><g fill="#ffffff" fill-opacity="1"><g transform="translate(144.566422, 314.607112)"><g><path d="M 8.261719 -14.652344 L 0.648438 -14.652344 C 0.648438 -14.652344 1.675781 -14.023438 1.675781 -12.789062 L 1.675781 -1.886719 C 1.675781 -0.585938 0.648438 0.0195312 0.648438 0.0195312 L 8.511719 0.0195312 C 12.726562 0.0195312 16.207031 -3.101562 16.207031 -7.820312 C 16.207031 -11.71875 12.160156 -14.652344 8.261719 -14.652344 Z M 7.925781 -2.285156 L 5.554688 -2.285156 C 4.738281 -2.285156 4.066406 -2.957031 4.066406 -3.792969 L 4.066406 -10.816406 C 4.066406 -11.675781 4.757812 -12.367188 5.617188 -12.367188 L 7.925781 -12.367188 C 11.300781 -12.367188 13.835938 -10.460938 13.835938 -7.335938 C 13.835938 -4.320312 11.300781 -2.285156 7.925781 -2.285156 Z M 7.925781 -2.285156 "/></g></g></g><g fill="#ffffff" fill-opacity="1"><g transform="translate(167.64696, 314.607112)"><g><path d="M 12.328125 -14.675781 C 12.328125 -14.675781 13.375 -14.152344 13.375 -12.789062 L 13.375 -6.644531 C 13.375 -3.144531 11.949219 -2.054688 8.59375 -2.054688 C 5.261719 -2.054688 3.816406 -3.144531 3.816406 -6.644531 L 3.816406 -12.789062 C 3.816406 -14.023438 4.84375 -14.675781 4.84375 -14.675781 L 0.417969 -14.675781 C 0.417969 -14.675781 1.445312 -14.128906 1.445312 -12.789062 L 1.445312 -6.351562 C 1.445312 -1.152344 4.949219 0.230469 8.59375 0.230469 C 12.222656 0.230469 15.746094 -1.152344 15.746094 -6.351562 L 15.722656 -12.789062 C 15.722656 -14.152344 16.773438 -14.675781 16.773438 -14.675781 Z M 12.328125 -14.675781 "/></g></g></g><g fill="#ffffff" fill-opacity="1"><g transform="translate(191.062834, 314.607112)"><g><path d="M 15.347656 -5.304688 C 15.347656 -5.304688 13.835938 -2.054688 8.660156 -2.054688 C 5.15625 -2.054688 2.976562 -4.339844 2.976562 -7.335938 C 2.976562 -10.273438 5.15625 -12.601562 8.636719 -12.601562 C 11.949219 -12.601562 14.191406 -11.507812 14.191406 -9.75 L 16.5625 -9.496094 C 16.5625 -12.832031 12.601562 -14.886719 8.722656 -14.886719 C 4.527344 -14.886719 0.628906 -11.488281 0.628906 -7.335938 C 0.628906 -3.144531 4.527344 0.230469 8.722656 0.230469 C 14.632812 0.230469 16.351562 -4.675781 16.351562 -4.675781 Z M 15.347656 -5.304688 "/></g></g></g><g fill="#ffffff" fill-opacity="1"><g transform="translate(214.45776, 314.607112)"><g><path d="M 15.871094 -14.589844 L 15.871094 -14.675781 L 1.070312 -14.675781 L 1.070312 -14.589844 L 0.335938 -9.957031 C 0.335938 -9.957031 2.347656 -12.367188 3.101562 -12.367188 L 6.246094 -12.367188 C 6.875 -12.035156 7.273438 -11.761719 7.273438 -11.027344 L 7.273438 -1.867188 C 7.273438 -0.546875 6.246094 0 6.246094 0 L 10.691406 0 C 10.691406 0 9.644531 -0.609375 9.644531 -1.867188 L 9.644531 -11.027344 C 9.644531 -11.738281 10.042969 -12.035156 10.691406 -12.367188 L 13.816406 -12.367188 C 14.570312 -12.367188 16.605469 -9.957031 16.605469 -9.957031 Z M 15.871094 -14.589844 "/></g></g></g><g fill="#ffffff" fill-opacity="1"><g transform="translate(237.622127, 314.607112)"><g><path d="M 4.003906 -12.789062 C 4.003906 -14.191406 5.03125 -14.675781 5.03125 -14.675781 L 0.609375 -14.675781 C 0.609375 -14.675781 1.636719 -14.046875 1.636719 -12.789062 L 1.636719 -1.867188 C 1.636719 -0.609375 0.609375 0 0.609375 0 L 5.03125 0 C 5.03125 0 4.003906 -0.609375 4.003906 -1.867188 Z M 4.003906 -12.789062 "/></g></g></g><g fill="#ffffff" fill-opacity="1"><g transform="translate(249.468528, 314.607112)"><g><path d="M 8.785156 -12.601562 C 12.265625 -12.601562 14.550781 -10.316406 14.550781 -7.316406 C 14.550781 -4.359375 12.265625 -2.054688 8.785156 -2.054688 C 5.304688 -2.054688 3.019531 -4.589844 3.019531 -7.316406 C 3.019531 -10.230469 5.304688 -12.601562 8.785156 -12.601562 Z M 0.671875 -7.316406 C 0.671875 -2.640625 4.613281 0.230469 8.785156 0.230469 C 12.957031 0.230469 16.898438 -2.746094 16.898438 -7.316406 C 16.898438 -11.886719 12.957031 -14.886719 8.785156 -14.886719 C 4.613281 -14.886719 0.671875 -12.011719 0.671875 -7.316406 Z M 0.671875 -7.316406 "/></g></g></g><g fill="#ffffff" fill-opacity="1"><g transform="translate(273.261683, 314.607112)"><g><path d="M 12.683594 -14.652344 C 12.683594 -14.652344 13.730469 -14.109375 13.730469 -12.789062 L 13.730469 -2.285156 L 13.1875 -2.285156 L 6.039062 -14.652344 L 1.65625 -14.652344 L 1.65625 -1.867188 C 1.65625 -0.585938 0.628906 0.0195312 0.628906 0.0195312 L 5.050781 0.0195312 C 5.050781 0.0195312 4.023438 -0.628906 4.023438 -1.867188 L 4.023438 -12.367188 L 4.820312 -12.367188 L 11.972656 0 L 16.078125 0 L 16.078125 -12.789062 C 16.078125 -14.109375 17.128906 -14.652344 17.128906 -14.652344 Z M 12.683594 -14.652344 "/></g></g></g><path fill="#ec1d27" d="M 120.851562 117.992188 L 68.148438 87.621094 L 68.148438 148.371094 Z M 120.851562 117.992188 " fill-opacity="1" fill-rule="nonzero"/><path fill="#ec1d27" d="M 139.300781 64.738281 L 109.054688 47.3125 L 109.054688 82.171875 Z M 139.300781 64.738281 " fill-opacity="1" fill-rule="nonzero"/><g clip-path="url(#54816b2f47)"><path fill="#ec1d27" d="M 87.445312 39.289062 L 68.148438 28.164062 L 68.148438 50.410156 Z M 87.445312 39.289062 " fill-opacity="1" fill-rule="nonzero"/></g><path fill="#ec1d27" d="M 100.3125 67.414062 L 81.011719 56.292969 L 81.011719 78.535156 Z M 100.3125 67.414062 " fill-opacity="1" fill-rule="nonzero"/><path fill="#ec1d27" d="M 139.300781 98.746094 L 120 87.621094 L 120 109.863281 Z M 139.300781 98.746094 " fill-opacity="1" fill-rule="nonzero"/><g clip-path="url(#0c46b7cb60)"><path fill="#bf1e24" d="M 178.910156 94.339844 L 198.207031 105.457031 L 178.910156 116.578125 Z M 153.613281 91.125 L 153.613281 56.265625 L 183.859375 73.691406 Z M 142.074219 36.3125 L 142.074219 111.0625 L 177.070312 131.230469 L 142.074219 151.402344 L 142.074219 226.152344 L 306.78125 131.230469 L 142.074219 36.3125 " fill-opacity="1" fill-rule="nonzero"/></g></svg>